<?xml version="1.0" encoding="UTF-8" standalone="no"?>
<svg
   height="120"
   viewBox="0 0 120 120"
   width="120"
   version="1.1"
   id="svg4"
   sodipodi:docname="icon.svg"
   inkscape:version="1.4 (e7c3feb100, 2024-10-09)"
   xmlns:inkscape="http://www.inkscape.org/namespaces/inkscape"
   xmlns:sodipodi="http://sodipodi.sourceforge.net/DTD/sodipodi-0.dtd"
   xmlns="http://www.w3.org/2000/svg"
   xmlns:svg="http://www.w3.org/2000/svg">
  <defs
     id="defs4" />
  <sodipodi:namedview
     id="namedview4"
     pagecolor="#505050"
     bordercolor="#ffffff"
     borderopacity="1"
     inkscape:showpageshadow="0"
     inkscape:pageopacity="0"
     inkscape:pagecheckerboard="1"
     inkscape:deskcolor="#d1d1d1"
     inkscape:zoom="1.8891509"
     inkscape:cx="122.01248"
     inkscape:cy="128.89388"
     inkscape:window-width="1880"
     inkscape:window-height="1012"
     inkscape:window-x="0"
     inkscape:window-y="0"
     inkscape:window-maximized="1"
     inkscape:current-layer="svg4"
     showguides="true">
    <sodipodi:guide
       position="120,120"
       orientation="0.70710678,-0.70710678"
       id="guide5"
       inkscape:locked="false" />
    <sodipodi:guide
       position="0,120"
       orientation="-0.70710678,-0.70710678"
       id="guide6"
       inkscape:locked="false" />
    <sodipodi:guide
       position="60,60"
       orientation="0,-1"
       id="guide7"
       inkscape:locked="false" />
    <sodipodi:guide
       position="60,60"
       orientation="1,0"
       id="guide8"
       inkscape:locked="false" />
  </sodipodi:namedview>
  <rect
     style="fill:#1f232b;fill-opacity:1.0;stroke:#4d77cb;stroke-linecap:round;stroke-linejoin:round;stroke-opacity:1;paint-order:stroke fill markers"
     id="rect8"
     width="120"
     height="120"
     x="0"
     y="0"
     ry="0" />
  <g
     id="g5"
     transform="matrix(0.76714895,0,0,0.76645745,13.962666,19.245324)"
     style="fill:none;fill-rule:evenodd;stroke-width:1.30412">
    <g
       stroke="#eed9b7"
       stroke-linecap="round"
       stroke-width="4.5644"
       id="g3"
       style="stroke:#4d77cb;stroke-opacity:1">
      <path
         d="M 78.19,46.086 C 91.223,72.85 93.912,98.072 84.034,103.114 73.849,108.314 54.16,90.093 40.058,62.415 25.955,34.738 22.78,8.085 32.966,2.886 37.401,0.621 43.64,2.799 50.431,8.262"
         id="path1"
         style="stroke:#4d77cb;stroke-width:4.5644;stroke-opacity:1" />
      <path
         d="M 13.776,64.477 C 6.18,60.537 1.756,55.792 2.01,50.889 2.603,39.517 28.151,31.602 59.073,33.207 c 30.922,1.606 55.509,12.126 54.917,23.498 -0.257,4.904 -5.15,9.163 -13.114,12.295"
         id="path2"
         style="stroke:#4d77cb;stroke-width:4.5644;stroke-opacity:1" />
      <path
         d="m 45.826,94.462 c -8.28,6.011 -15.649,8.206 -20.258,5.198 C 16.027,93.435 21.916,67.274 38.724,41.227 55.53,15.182 76.89,-0.887 86.432,5.34 c 4.436,2.893 5.536,10.094 3.756,19.587"
         id="path3"
         style="stroke:#4d77cb;stroke-width:4.5644;stroke-opacity:1" />
    </g>
    <path
       d="M 66.84,51.522 A 6.9988403,6.9988403 0 1 1 53.158,54.478 6.999329,6.999329 0 0 1 66.841,51.522"
       fill="#eed9b7"
       id="path4"
       style="fill:#4d77cb;fill-opacity:1;stroke-width:1.30412" />
  </g>
</svg>
